<?xml version="1.0" standalone="no"?>
<!DOCTYPE svg PUBLIC "-//W3C//DTD SVG 1.1//EN"
"http://www.w3.org/Graphics/SVG/1.1/DTD/svg11.dtd">

<svg width="927" height="354" view_box="0 0 927 354"
xmlns="http://www.w3.org/2000/svg"
xmlns:link="http://www.w3.org/1999/xlink">\n\n<desc>Généré par Mocodo 2.3.7 le Wed, 17 Aug 2022 04:43:33</desc>

<rect id="frame" x="0" y="0" width="927" height="354" fill="#f7f7f7" stroke="none" stroke-width="0"/>

<!-- Association Contient -->
<line x1="600" y1="127" x2="600" y2="245" stroke="#7fbc41" stroke-width="2"/>
<text x="605.0" y="212" fill="#c51b7d" font-family="Verdana" font-size="12">1,N</text>
<line x1="600" y1="320" x2="600" y2="245" stroke="#7fbc41" stroke-width="2"/>
<text x="605.0" y="287" fill="#c51b7d" font-family="Verdana" font-size="12">0,N</text>
<g id="association-Contient">
	<path d="M 619 220 a 14 14 90 0 1 14 14 V 245 h -66 V 234 a 14 14 90 0 1 14 -14" fill="#b8e186" stroke="#b8e186" stroke-width="0"/>
	<path d="M 633 245.0 v 11 a 14 14 90 0 1 -14 14 H 581 a 14 14 90 0 1 -14 -14 V 245.0 H 66" fill="#e6f5d0" stroke="#e6f5d0" stroke-width="0"/>
	<rect x="567" y="220" width="66" height="50" fill="none" rx="14" stroke="#7fbc41" stroke-width="2"/>
	<line x1="567" y1="245" x2="633" y2="245" stroke="#7fbc41" stroke-width="1"/>
	<text x="574" y="237.7" fill="#000000" font-family="Verdana" font-size="12">Contient</text>
</g>

<!-- Association Appartient -->
<line x1="600" y1="127" x2="490" y2="127" stroke="#7fbc41" stroke-width="2"/>
<text x="535" y="144.0" fill="#c51b7d" font-family="Verdana" font-size="12">1,1</text>
<line x1="370" y1="127" x2="490" y2="127" stroke="#7fbc41" stroke-width="2"/>
<text x="424" y="144.0" fill="#c51b7d" font-family="Verdana" font-size="12">0,N</text>
<g id="association-Appartient">
	<path d="M 515 102 a 14 14 90 0 1 14 14 V 127 h -78 V 116 a 14 14 90 0 1 14 -14" fill="#b8e186" stroke="#b8e186" stroke-width="0"/>
	<path d="M 529 127.0 v 11 a 14 14 90 0 1 -14 14 H 465 a 14 14 90 0 1 -14 -14 V 127.0 H 78" fill="#e6f5d0" stroke="#e6f5d0" stroke-width="0"/>
	<rect x="451" y="102" width="78" height="50" fill="none" rx="14" stroke="#7fbc41" stroke-width="2"/>
	<line x1="451" y1="127" x2="529" y2="127" stroke="#7fbc41" stroke-width="1"/>
	<text x="458" y="119.7" fill="#000000" font-family="Verdana" font-size="12">Appartient</text>
</g>

<!-- Association Posséde -->
<line x1="600" y1="127" x2="720" y2="127" stroke="#7fbc41" stroke-width="2"/>
<text x="644" y="144.0" fill="#c51b7d" font-family="Verdana" font-size="12">1,1</text>
<line x1="819" y1="127" x2="720" y2="127" stroke="#7fbc41" stroke-width="2"/>
<text x="757" y="144.0" fill="#c51b7d" font-family="Verdana" font-size="12">0,N</text>
<g id="association-Posséde">
	<path d="M 738 102 a 14 14 90 0 1 14 14 V 127 h -64 V 116 a 14 14 90 0 1 14 -14" fill="#b8e186" stroke="#b8e186" stroke-width="0"/>
	<path d="M 752 127.0 v 11 a 14 14 90 0 1 -14 14 H 702 a 14 14 90 0 1 -14 -14 V 127.0 H 64" fill="#e6f5d0" stroke="#e6f5d0" stroke-width="0"/>
	<rect x="688" y="102" width="64" height="50" fill="none" rx="14" stroke="#7fbc41" stroke-width="2"/>
	<line x1="688" y1="127" x2="752" y2="127" stroke="#7fbc41" stroke-width="1"/>
	<text x="695" y="119.7" fill="#000000" font-family="Verdana" font-size="12">Posséde</text>
</g>

<!-- Association CategoriCollection -->
<line x1="370" y1="127" x2="227" y2="127" stroke="#7fbc41" stroke-width="2"/>
<text x="295" y="144.0" fill="#c51b7d" font-family="Verdana" font-size="12">1,1</text>
<line x1="87" y1="127" x2="227" y2="127" stroke="#7fbc41" stroke-width="2"/>
<text x="138" y="144.0" fill="#c51b7d" font-family="Verdana" font-size="12">0,N</text>
<g id="association-CategoriCollection">
	<path d="M 275 102 a 14 14 90 0 1 14 14 V 127 h -124 V 116 a 14 14 90 0 1 14 -14" fill="#b8e186" stroke="#b8e186" stroke-width="0"/>
	<path d="M 289 127.0 v 11 a 14 14 90 0 1 -14 14 H 179 a 14 14 90 0 1 -14 -14 V 127.0 H 124" fill="#e6f5d0" stroke="#e6f5d0" stroke-width="0"/>
	<rect x="165" y="102" width="124" height="50" fill="none" rx="14" stroke="#7fbc41" stroke-width="2"/>
	<line x1="165" y1="127" x2="289" y2="127" stroke="#7fbc41" stroke-width="1"/>
	<text x="172" y="119.7" fill="#000000" font-family="Verdana" font-size="12">CategoriCollection</text>
</g>

<!-- Association Favori -->
<line x1="600" y1="127" x2="720" y2="34" stroke="#7fbc41" stroke-width="2"/>
<text x="644" y="107.961530588" fill="#c51b7d" font-family="Verdana" font-size="12">0,N</text>
<line x1="819" y1="127" x2="720" y2="34" stroke="#7fbc41" stroke-width="2"/>
<text x="757" y="104.36255665" fill="#c51b7d" font-family="Verdana" font-size="12">0,N</text>
<g id="association-Favori">
	<path d="M 732 9 a 14 14 90 0 1 14 14 V 34 h -52 V 23 a 14 14 90 0 1 14 -14" fill="#b8e186" stroke="#b8e186" stroke-width="0"/>
	<path d="M 746 34.0 v 11 a 14 14 90 0 1 -14 14 H 708 a 14 14 90 0 1 -14 -14 V 34.0 H 52" fill="#e6f5d0" stroke="#e6f5d0" stroke-width="0"/>
	<rect x="694" y="9" width="52" height="50" fill="none" rx="14" stroke="#7fbc41" stroke-width="2"/>
	<line x1="694" y1="34" x2="746" y2="34" stroke="#7fbc41" stroke-width="1"/>
	<text x="701" y="26.7" fill="#000000" font-family="Verdana" font-size="12">Favori</text>
</g>

<!-- Association PropertyTag -->
<line x1="600" y1="320" x2="720" y2="320" stroke="#7fbc41" stroke-width="2"/>
<text x="649" y="337.0" fill="#c51b7d" font-family="Verdana" font-size="12">0,1</text>
<line x1="819" y1="320" x2="720" y2="320" stroke="#7fbc41" stroke-width="2"/>
<text x="769" y="337.0" fill="#c51b7d" font-family="Verdana" font-size="12">0,N</text>
<g id="association-PropertyTag">
	<path d="M 750 295 a 14 14 90 0 1 14 14 V 320 h -88 V 309 a 14 14 90 0 1 14 -14" fill="#b8e186" stroke="#b8e186" stroke-width="0"/>
	<path d="M 764 320.0 v 11 a 14 14 90 0 1 -14 14 H 690 a 14 14 90 0 1 -14 -14 V 320.0 H 88" fill="#e6f5d0" stroke="#e6f5d0" stroke-width="0"/>
	<rect x="676" y="295" width="88" height="50" fill="none" rx="14" stroke="#7fbc41" stroke-width="2"/>
	<line x1="676" y1="320" x2="764" y2="320" stroke="#7fbc41" stroke-width="1"/>
	<text x="683" y="312.7" fill="#000000" font-family="Verdana" font-size="12">PropertyTag</text>
</g>

<!-- Entity TAGS -->
<g id="entity-TAGS">
	<g id="frame-TAGS">
		<rect x="796" y="295" width="46" height="25" fill="#f1b6da" stroke="#f1b6da" stroke-width="0"/>
		<rect x="796" y="320.0" width="46" height="25" fill="#fde0ef" stroke="#fde0ef" stroke-width="0"/>
		<rect x="796" y="295" width="46" height="50" fill="none" stroke="#de77ae" stroke-width="2"/>
		<line x1="796" y1="320" x2="842" y2="320" stroke="#de77ae" stroke-width="1"/>
	</g>
	<text x="802" y="312.7" fill="#000000" font-family="Verdana" font-size="12">TAGS</text>
	<text x="801" y="337.8" fill="#000000" font-family="Verdana" font-size="12">name</text>
	<line x1="801" y1="340" x2="836" y2="340" stroke="#000000" stroke-width="1"/>
</g>

<!-- Entity NFT -->
<g id="entity-NFT">
	<g id="frame-NFT">
		<rect x="561" y="59" width="78" height="25" fill="#f1b6da" stroke="#f1b6da" stroke-width="0"/>
		<rect x="561" y="84.0" width="78" height="111" fill="#fde0ef" stroke="#fde0ef" stroke-width="0"/>
		<rect x="561" y="59" width="78" height="136" fill="none" stroke="#de77ae" stroke-width="2"/>
		<line x1="561" y1="84" x2="639" y2="84" stroke="#de77ae" stroke-width="1"/>
	</g>
	<text x="588" y="76.7" fill="#000000" font-family="Verdana" font-size="12">NFT</text>
	<text x="566" y="101.7" fill="#000000" font-family="Verdana" font-size="12">token</text>
	<line x1="566" y1="104" x2="601" y2="104" stroke="#000000" stroke-width="1"/>
	<text x="566" y="118.7" fill="#000000" font-family="Verdana" font-size="12">name</text>
	<text x="566" y="135.8" fill="#000000" font-family="Verdana" font-size="12">description</text>
	<text x="566" y="152.8" fill="#000000" font-family="Verdana" font-size="12">price</text>
	<text x="566" y="169.8" fill="#000000" font-family="Verdana" font-size="12">forSale</text>
	<text x="566" y="186.8" fill="#000000" font-family="Verdana" font-size="12">media</text>
</g>

<!-- Entity COLLECTIONS -->
<g id="entity-COLLECTIONS">
	<g id="frame-COLLECTIONS">
		<rect x="321" y="76" width="98" height="25" fill="#f1b6da" stroke="#f1b6da" stroke-width="0"/>
		<rect x="321" y="101.0" width="98" height="77" fill="#fde0ef" stroke="#fde0ef" stroke-width="0"/>
		<rect x="321" y="76" width="98" height="102" fill="none" stroke="#de77ae" stroke-width="2"/>
		<line x1="321" y1="101" x2="419" y2="101" stroke="#de77ae" stroke-width="1"/>
	</g>
	<text x="326" y="93.7" fill="#000000" font-family="Verdana" font-size="12">COLLECTIONS</text>
	<text x="326" y="118.7" fill="#000000" font-family="Verdana" font-size="12">collection_id</text>
	<line x1="326" y1="121" x2="402" y2="121" stroke="#000000" stroke-width="1"/>
	<text x="326" y="135.8" fill="#000000" font-family="Verdana" font-size="12">name</text>
	<text x="326" y="152.8" fill="#000000" font-family="Verdana" font-size="12">description</text>
	<text x="326" y="169.8" fill="#000000" font-family="Verdana" font-size="12">media</text>
</g>

<!-- Entity USER -->
<g id="entity-USER">
	<g id="frame-USER">
		<rect x="784" y="59" width="70" height="25" fill="#f1b6da" stroke="#f1b6da" stroke-width="0"/>
		<rect x="784" y="84.0" width="70" height="111" fill="#fde0ef" stroke="#fde0ef" stroke-width="0"/>
		<rect x="784" y="59" width="70" height="136" fill="none" stroke="#de77ae" stroke-width="2"/>
		<line x1="784" y1="84" x2="854" y2="84" stroke="#de77ae" stroke-width="1"/>
	</g>
	<text x="802" y="76.7" fill="#000000" font-family="Verdana" font-size="12">USER</text>
	<text x="789" y="101.7" fill="#000000" font-family="Verdana" font-size="12">email</text>
	<line x1="789" y1="104" x2="823" y2="104" stroke="#000000" stroke-width="1"/>
	<text x="789" y="118.7" fill="#000000" font-family="Verdana" font-size="12">nickname</text>
	<text x="789" y="135.8" fill="#000000" font-family="Verdana" font-size="12">password</text>
	<text x="789" y="152.8" fill="#000000" font-family="Verdana" font-size="12">wallet</text>
	<text x="789" y="169.8" fill="#000000" font-family="Verdana" font-size="12">isAdmin</text>
	<text x="789" y="186.8" fill="#000000" font-family="Verdana" font-size="12">media</text>
</g>

<!-- Entity PROPERTIES -->
<g id="entity-PROPERTIES">
	<g id="frame-PROPERTIES">
		<rect x="556" y="295" width="88" height="25" fill="#f1b6da" stroke="#f1b6da" stroke-width="0"/>
		<rect x="556" y="320.0" width="88" height="25" fill="#fde0ef" stroke="#fde0ef" stroke-width="0"/>
		<rect x="556" y="295" width="88" height="50" fill="none" stroke="#de77ae" stroke-width="2"/>
		<line x1="556" y1="320" x2="644" y2="320" stroke="#de77ae" stroke-width="1"/>
	</g>
	<text x="561" y="312.7" fill="#000000" font-family="Verdana" font-size="12">PROPERTIES</text>
	<text x="561" y="337.8" fill="#000000" font-family="Verdana" font-size="12">name</text>
	<line x1="561" y1="340" x2="596" y2="340" stroke="#000000" stroke-width="1"/>
</g>

<!-- Entity CATEGORIES -->
<g id="entity-CATEGORIES">
	<g id="frame-CATEGORIES">
		<rect x="41" y="85" width="92" height="25" fill="#f1b6da" stroke="#f1b6da" stroke-width="0"/>
		<rect x="41" y="110.0" width="92" height="59" fill="#fde0ef" stroke="#fde0ef" stroke-width="0"/>
		<rect x="41" y="85" width="92" height="84" fill="none" stroke="#de77ae" stroke-width="2"/>
		<line x1="41" y1="110" x2="133" y2="110" stroke="#de77ae" stroke-width="1"/>
	</g>
	<text x="46" y="102.7" fill="#000000" font-family="Verdana" font-size="12">CATEGORIES</text>
	<text x="46" y="127.8" fill="#000000" font-family="Verdana" font-size="12">name</text>
	<line x1="46" y1="130" x2="81" y2="130" stroke="#000000" stroke-width="1"/>
	<text x="46" y="144.8" fill="#000000" font-family="Verdana" font-size="12">description</text>
	<text x="46" y="161.8" fill="#000000" font-family="Verdana" font-size="12">media</text>
</g>
</svg>